# xmcd
#
# Track frame offsets:
#	150
#	20201
#	39825
#	59851
#	79481
#	103427
#	129505
#	150178
#	169319
#	191166
#	210631
#	230473
#	251745
#	272840
#	295136
#	316587
#
# Disc length: 4468 seconds
#
# Revision: 1
# Processed by: cddbd v1.5.2PL0 Copyright (c) Steve Scherf et al.
# Submitted via: EZCDAudioConverter 7.1.5.1
#
DISCID=ed117210
DTITLE=周蕙 - 周蕙精选 1999-2003 绝对珍藏版
DYEAR=2003
DGENRE=
TTITLE0=流域
TTITLE1=爱情无关是非
TTITLE2=不想让你知道
TTITLE3=约定
TTITLE4=预言
TTITLE5=替身
TTITLE6=我喜欢
TTITLE7=Angle Face
TTITLE8=话题
TTITLE9=好想好好爱你
TTITLE10=爱过不伤心
TTITLE11=不哭
TTITLE12=体温
TTITLE13=寂寞城市
TTITLE14=Hold Me Tight
TTITLE15=收藏
EXTD=
EXTT0=
EXTT1=
EXTT2=
EXTT3=
EXTT4=
EXTT5=
EXTT6=
EXTT7=
EXTT8=
EXTT9=
EXTT10=
EXTT11=
EXTT12=
EXTT13=
EXTT14=
EXTT15=
PLAYORDER=
